# xmcd CD database file
#
# Track frame offsets:
#	150
#	15002
#	31942
#	47961
#	69491
#	84128
#	126892
#	155268
#	183685
#	202163
#	228504
#	253732
#	284837
#	304044
#	323443
#
# Disc length: 4679 seconds
#
# Revision: 0
# Processed by: cddbd v1.5.2PL0 Copyright (c) Steve Scherf et al.
# Submitted via: CDex 1.70beta2
#
DISCID=c812450f
DTITLE=Roberto Roena - La Herencia
DYEAR=2007
DGENRE=Salsa
TTITLE0=Tu Loco Loco Y Yo Tranquilo
TTITLE1=Soñado cou Puerto Rico
TTITLE2=Con Los Porbres Estoy
TTITLE3=Cui Cui
TTITLE4=Que Se Sepa
TTITLE5=Ponte Duro
TTITLE6=El Que Se Fué
TTITLE7=Traición
TTITLE8=Herencia Rumbera
TTITLE9=Fea
TTITLE10=Mi Desengaño
TTITLE11=Para Ser Rumbero
TTITLE12=Apollo Theme
TTITLE13=El Progreso
TTITLE14=Guaguancó del Adiós
EXTD=YEAR: 2007
EXTT0=
EXTT1=
EXTT2=
EXTT3=
EXTT4=
EXTT5=
EXTT6=
EXTT7=
EXTT8=
EXTT9=
EXTT10=
EXTT11=
EXTT12=
EXTT13=
EXTT14=
PLAYORDER=
